<svg xmlns="http://www.w3.org/2000/svg" version="1.1" xmlns:xlink="http://www.w3.org/1999/xlink" xmlns:svgjs="http://svgjs.dev/svgjs" width="1000" height="1000"><svg version="1.1" id="SvgjsSvg1154" xmlns="http://www.w3.org/2000/svg" xmlns:xlink="http://www.w3.org/1999/xlink" x="0px" y="0px" viewBox="0 0 1000 1000" style="enable-background:new 0 0 1000 1000;" xml:space="preserve">
<style type="text/css">
	.st0{fill:#FFFFFF;}
</style>
<path d="M733.81,401.23c-12.78-30.22-31.07-57.36-54.38-80.66c-23.3-23.3-50.44-41.6-80.65-54.38
	c-31.29-13.23-64.52-19.94-98.78-19.94c-34.25,0-67.48,6.71-98.77,19.94c-30.22,12.78-57.35,31.07-80.66,54.38
	c-23.3,23.3-41.6,50.44-54.38,80.66c-13.23,31.28-19.94,64.52-19.94,98.77s6.71,67.48,19.94,98.77
	c12.78,30.22,31.08,57.36,54.38,80.66c23.3,23.3,50.44,41.6,80.66,54.38c31.29,13.23,64.52,19.94,98.77,19.94
	c34.26,0,67.49-6.71,98.78-19.94c30.21-12.78,57.35-31.07,80.65-54.38c23.3-23.3,41.6-50.44,54.38-80.66
	c13.23-31.29,19.94-64.51,19.94-98.77S747.04,432.51,733.81,401.23z M608.17,718.2c-6.48-1.69-12.9-4.07-19.67-6.58
	c-13.3-4.95-28.38-10.55-47.61-11.96c-11.45-0.84-23.46-0.1-36.23,2.23c12.19-11.11,16-22.29,16.55-31.11
	c1.01-16.06-4.43-28.36-16.16-36.55c-9.82-6.86-22.77-10.04-34.19-12.86c-14.1-3.47-26.29-6.47-28.18-14.39
	c-2.31-9.69,6.89-17.32,28.12-23.33l74.25-20.98c25.44-7.19,34.58-17.42,37.76-24.74c2.55-5.86,2.34-12.21-0.57-17.88
	c-0.01-0.03-0.03-0.06-0.05-0.09c0-0.01,0-0.01-0.01-0.02c-0.18-0.34-0.37-0.68-0.56-1.01c-7.18-13.32-2.87-23.21,5.86-33.1
	c0.09-0.1,0.18-0.21,0.28-0.31c2.46-2.75,5.25-5.51,8.22-8.35c0.52-0.49,1.03-0.98,1.53-1.46c1.95-1.86,3.78-3.63,5.23-5.22
	c1.89-2.09,5.11-2.25,7.2-0.36c2.08,1.89,2.24,5.11,0.35,7.2c-1.89,2.09-4.14,4.23-6.52,6.51c-4.41,4.2-8.41,8.22-11.51,12.32
	c3.36,1.32,7.02,2.04,10.85,2.04c16.43,0,29.81-13.37,29.81-29.8c0-16.43-13.37-29.81-29.81-29.81s-29.81,13.37-29.81,29.81
	c0,5.12,1.31,9.94,3.59,14.16c-2.16,2.77-4.13,5.75-5.66,8.95c-2.49,5.21-3.61,10.53-3.37,15.92c-1.63-0.67-3.32-1.21-5.05-1.59
	c-26.66-5.88-58.8,7.1-84.63,17.54c-16.41,6.63-33.37,13.48-39.96,11.04c-1.69-0.62-5.06-2.16-7.31-5.04
	c-0.79-1.33-1.43-2.68-1.94-4.04c-1.23-5.47,1.01-17.64,28.53-38.94c6.39-4.95,12.52-10.1,18.37-15.43c0.16-0.15,0.33-0.3,0.49-0.44
	c23.82-21.39,42.64-45.79,55.46-71.38c1.26-2.51,4.32-3.53,6.83-2.27c2.51,1.26,3.53,4.32,2.27,6.84
	c-11.59,23.12-28.02,45.26-48.29,65.22c31.94-4.61,55.66-17.44,70.66-38.26c11.26-15.65,17.41-35.61,18.27-59.33
	c0.72-19.81-2.21-41.73-8.72-65.14c-0.55-1.98-2.23-3.43-4.27-3.69c-2.03-0.26-4.03,0.73-5.05,2.51
	c-5.08,8.83-17.48,16.4-31.83,25.17c-18.08,11.05-38.57,23.56-51.5,43.13c-15.07,22.8-16.64,50.33-4.79,84.13
	c-7.52,7.28-15.58,14.27-24.12,20.88c-10.9,8.44-19.1,16.4-24.56,23.85c-0.04-4.5-0.22-9.3-0.98-14.43
	c8.41-15.7,8.59-33.07,0.34-48.38c-10.58-19.61-32.88-31.79-58.2-31.79c-2.35,0-4.4,1.61-4.95,3.89
	c-5.29,21.78-3.57,39.84,5.1,53.68c7.6,12.14,20.61,21.1,38.77,26.72c-1.46-9.88-5.59-20.97-17.7-34.12
	c-1.73-1.88-1.61-4.8,0.27-6.52c1.88-1.73,4.8-1.61,6.52,0.27c0.44,0.47,0.86,0.94,1.28,1.41c0.22,0.24,0.43,0.49,0.64,0.73
	c0.32,0.37,0.65,0.74,0.96,1.11c0.43,0.5,0.84,1,1.25,1.49c0.23,0.28,0.46,0.57,0.68,0.85c0.23,0.29,0.46,0.58,0.69,0.87
	c0.26,0.34,0.53,0.68,0.78,1.01c0.13,0.17,0.26,0.34,0.38,0.51c4.75,6.34,7.91,12.29,10.02,17.87c0.04,0.1,0.07,0.19,0.1,0.29
	c0.11,0.31,0.23,0.62,0.34,0.92c3.51,10.09,3.53,18.97,3.54,27.22c0.01,7.81,0.03,15.28,2.73,22.69
	c2.69,9.82,11.65,14.1,15.42,15.49c2.05,0.76,4.34,1.11,6.86,1.11c10.11,0,23.89-5.57,40.45-12.26
	c24.52-9.9,55.04-22.24,78.62-17.04c5.09,1.13,9.71,4.2,12.09,8.06c0,0.01,0.01,0.02,0.02,0.03c0.16,0.3,0.33,0.6,0.5,0.9
	c1.51,2.97,1.6,6.03,0.26,9.1c-1.88,4.34-8.44,12.57-31.18,19l-74.25,20.98c-6.48,1.84-15.97,4.86-23.49,9.93
	c-12.72,8.57-13.41,18.64-11.76,25.57c3.33,13.96,19.03,17.82,35.65,21.92c26.81,6.6,44.26,12.88,42.62,38.88
	c-0.46,7.26-3.79,14.28-9.9,20.88c-7.39,7.97-18.65,15.13-33.52,21.28c-3.68,1.36-7.49,2.85-11.32,4.44c-0.01,0-0.02,0.01-0.03,0.01
	c-14.77,5.58-27.68,9.58-39.41,12.21C323.38,694.9,256.44,605.12,256.44,500c0-134.3,109.26-243.56,243.56-243.56
	S743.56,365.7,743.56,500C743.56,595.47,688.35,678.29,608.17,718.2z"></path>
</svg><style>@media (prefers-color-scheme: light) { :root { filter: none; } }
@media (prefers-color-scheme: dark) { :root { filter: invert(100%); } }
</style></svg>